<svg width="108" height="91" viewBox="0 0 108 91" fill="none" xmlns="http://www.w3.org/2000/svg">
<path d="M74.5 84.5L31.5 85V91H74.5V84.5Z" fill="#05A660"/>
<path d="M75 90.5V85.5V85H86.5L88.5 84.5L90.5 84L92 83.5L93.5 82.5L95 81.5L96 80.5L97.5 79L98.5 77.5L99.5 75.5L100.5 73L101 70.5L101.5 67.5L102 64H106.5L105.5 90.5H75Z" fill="#05A660" stroke="#05A660"/>
<path d="M30.4611 79.384C29.3411 79.384 28.3251 79.128 27.4131 78.616C26.5011 78.088 25.7731 77.368 25.2291 76.456C24.7011 75.528 24.4371 74.472 24.4371 73.288C24.4371 72.024 24.7011 70.888 25.2291 69.88C25.7571 68.872 26.4771 68.08 27.3891 67.504C28.3011 66.912 29.3251 66.616 30.4611 66.616C31.5811 66.616 32.5971 66.888 33.5091 67.432C34.4211 67.96 35.1491 68.68 35.6931 69.592C36.2371 70.504 36.5091 71.544 36.5091 72.712C36.5091 73.944 36.2371 75.072 35.6931 76.096C35.1651 77.104 34.4451 77.904 33.5331 78.496C32.6211 79.088 31.5971 79.384 30.4611 79.384ZM30.6531 78.424C31.5011 78.424 32.1731 78.184 32.6691 77.704C33.1651 77.224 33.5171 76.6 33.7251 75.832C33.9491 75.064 34.0611 74.256 34.0611 73.408C34.0611 72.688 33.9891 71.984 33.8451 71.296C33.7171 70.592 33.5091 69.96 33.2211 69.4C32.9331 68.824 32.5571 68.368 32.0931 68.032C31.6451 67.696 31.1011 67.528 30.4611 67.528C29.6291 67.528 28.9491 67.768 28.4211 68.248C27.8931 68.728 27.5011 69.352 27.2451 70.12C27.0051 70.888 26.8851 71.712 26.8851 72.592C26.8851 73.584 27.0211 74.528 27.2931 75.424C27.5651 76.304 27.9811 77.024 28.5411 77.584C29.1011 78.144 29.8051 78.424 30.6531 78.424ZM43.6122 79.384C42.7482 79.384 42.0202 79.224 41.4282 78.904C40.8522 78.584 40.4122 78.04 40.1082 77.272C39.8202 76.504 39.6762 75.464 39.6762 74.152V69.88C39.6762 69.624 39.6762 69.368 39.6762 69.112C39.6922 68.856 39.7242 68.592 39.7722 68.32C39.5002 68.336 39.2202 68.352 38.9322 68.368C38.6602 68.368 38.3882 68.376 38.1162 68.392V67.408H38.8602C39.5482 67.408 40.0442 67.344 40.3482 67.216C40.6682 67.072 40.9162 66.92 41.0922 66.76H41.7882V74.08C41.7882 75.456 41.9802 76.488 42.3642 77.176C42.7642 77.848 43.4362 78.176 44.3802 78.16C44.9882 78.144 45.5642 77.96 46.1082 77.608C46.6682 77.24 47.1162 76.808 47.4522 76.312V70.144C47.4522 69.76 47.4602 69.432 47.4762 69.16C47.4922 68.872 47.5242 68.592 47.5722 68.32C47.2842 68.336 46.9962 68.352 46.7082 68.368C46.4202 68.368 46.1322 68.376 45.8442 68.392V67.408H46.5882C47.2762 67.408 47.7722 67.344 48.0762 67.216C48.3962 67.072 48.6442 66.92 48.8202 66.76H49.5162L49.4922 75.832C49.4922 76.088 49.4842 76.448 49.4682 76.912C49.4522 77.376 49.4282 77.768 49.3962 78.088C49.6842 78.072 49.9722 78.056 50.2602 78.04C50.5482 78.024 50.8362 78.008 51.1242 77.992V79H47.6922C47.6442 78.728 47.6042 78.472 47.5722 78.232C47.5562 77.992 47.5402 77.768 47.5242 77.56C47.0282 78.056 46.4282 78.488 45.7242 78.856C45.0202 79.208 44.3162 79.384 43.6122 79.384ZM52.8685 79V78.28C53.3645 78.28 53.7085 78.16 53.9005 77.92C54.0925 77.664 54.2045 77.32 54.2365 76.888C54.2685 76.44 54.2845 75.928 54.2845 75.352L54.3085 69.88C54.3085 69.624 54.3085 69.368 54.3085 69.112C54.3245 68.856 54.3565 68.592 54.4045 68.32C54.1165 68.336 53.8285 68.352 53.5405 68.368C53.2685 68.384 52.9885 68.4 52.7005 68.416V67.408C53.4045 67.408 53.9325 67.376 54.2845 67.312C54.6525 67.248 54.9245 67.168 55.1005 67.072C55.2765 66.976 55.4205 66.872 55.5325 66.76H56.2285C56.2445 66.872 56.2525 67 56.2525 67.144C56.2685 67.288 56.2845 67.448 56.3005 67.624C56.3165 67.8 56.3245 68 56.3245 68.224C56.6765 67.92 57.0605 67.648 57.4765 67.408C57.9085 67.168 58.3565 66.976 58.8205 66.832C59.3005 66.688 59.7725 66.616 60.2365 66.616C61.6285 66.616 62.6445 67.056 63.2845 67.936C63.9245 68.8 64.2445 70.152 64.2445 71.992V76.456C64.2445 76.776 64.2365 77.064 64.2205 77.32C64.2205 77.56 64.1965 77.816 64.1485 78.088C64.4045 78.072 64.6525 78.064 64.8925 78.064C65.1485 78.048 65.4045 78.032 65.6605 78.016V79H60.7645V78.28C61.2605 78.28 61.6045 78.16 61.7965 77.92C61.9885 77.664 62.1005 77.32 62.1325 76.888C62.1645 76.44 62.1805 75.928 62.1805 75.352V71.992C62.1645 70.616 61.9325 69.576 61.4845 68.872C61.0525 68.168 60.3645 67.824 59.4205 67.84C58.8445 67.856 58.2765 68.008 57.7165 68.296C57.1725 68.584 56.7165 68.952 56.3485 69.4C56.3645 69.528 56.3725 69.672 56.3725 69.832C56.3725 69.992 56.3725 70.16 56.3725 70.336L56.3485 76.456C56.3485 76.776 56.3405 77.064 56.3245 77.32C56.3245 77.56 56.3005 77.816 56.2525 78.088C56.5085 78.072 56.7565 78.064 56.9965 78.064C57.2525 78.048 57.5085 78.032 57.7645 78.016V79H52.8685ZM73.2306 85.504C71.7906 85.504 70.6306 85.344 69.7506 85.024C68.8706 84.704 68.2306 84.296 67.8306 83.8C67.4306 83.304 67.2306 82.792 67.2306 82.264C67.2306 81.768 67.3426 81.328 67.5666 80.944C67.8066 80.576 68.0946 80.256 68.4306 79.984C68.7826 79.712 69.1186 79.512 69.4386 79.384C68.9266 79.208 68.5186 78.976 68.2146 78.688C67.9266 78.384 67.7826 77.984 67.7826 77.488C67.7826 76.928 68.0066 76.408 68.4546 75.928C68.9026 75.432 69.4786 75.128 70.1826 75.016C69.4466 74.664 68.8546 74.176 68.4066 73.552C67.9746 72.928 67.7586 72.2 67.7586 71.368C67.7586 70.408 68.0066 69.576 68.5026 68.872C68.9986 68.152 69.6306 67.6 70.3986 67.216C71.1826 66.816 71.9906 66.616 72.8226 66.616C73.3506 66.616 73.8786 66.696 74.4066 66.856C74.9346 67 75.4226 67.216 75.8706 67.504C76.0306 67.056 76.2546 66.656 76.5426 66.304C76.8466 65.952 77.1906 65.68 77.5746 65.488C77.9586 65.28 78.3586 65.176 78.7746 65.176C79.1906 65.176 79.5026 65.288 79.7106 65.512C79.9346 65.72 80.0466 66.008 80.0466 66.376C80.0466 66.488 80.0146 66.624 79.9506 66.784C79.8866 66.944 79.7746 67.08 79.6146 67.192C79.4706 67.304 79.2706 67.36 79.0146 67.36C78.7426 67.36 78.5186 67.28 78.3426 67.12C78.1666 66.96 78.0546 66.76 78.0066 66.52C77.6066 66.584 77.2946 66.776 77.0706 67.096C76.8466 67.4 76.6946 67.736 76.6146 68.104C76.9986 68.456 77.3026 68.88 77.5266 69.376C77.7666 69.872 77.8866 70.4 77.8866 70.96C77.8866 71.856 77.6466 72.656 77.1666 73.36C76.7026 74.064 76.0866 74.616 75.3186 75.016C74.5506 75.4 73.7186 75.592 72.8226 75.592C72.5186 75.592 72.2546 75.576 72.0306 75.544C71.8066 75.496 71.5346 75.472 71.2146 75.472C70.6226 75.472 70.1426 75.616 69.7746 75.904C69.4066 76.192 69.2786 76.536 69.3906 76.936C69.5186 77.32 69.9106 77.568 70.5666 77.68C71.2226 77.776 72.1026 77.848 73.2066 77.896C74.4386 77.944 75.4946 78.088 76.3746 78.328C77.2546 78.568 77.9266 78.936 78.3906 79.432C78.8706 79.944 79.1106 80.632 79.1106 81.496C79.1106 82.136 78.9346 82.704 78.5826 83.2C78.2466 83.712 77.7906 84.136 77.2146 84.472C76.6546 84.808 76.0226 85.064 75.3186 85.24C74.6306 85.416 73.9346 85.504 73.2306 85.504ZM73.2066 84.568C74.5826 84.568 75.6546 84.312 76.4226 83.8C77.1906 83.288 77.5746 82.688 77.5746 82C77.5746 81.408 77.3746 80.952 76.9746 80.632C76.5746 80.328 76.0306 80.112 75.3426 79.984C74.6546 79.872 73.8626 79.808 72.9666 79.792C72.5346 79.776 72.1106 79.752 71.6946 79.72C71.2786 79.704 70.8786 79.664 70.4946 79.6C70.0626 79.888 69.7266 80.24 69.4866 80.656C69.2466 81.072 69.1266 81.512 69.1266 81.976C69.1266 82.76 69.4946 83.384 70.2306 83.848C70.9826 84.328 71.9746 84.568 73.2066 84.568ZM72.8946 74.728C73.4866 74.728 73.9746 74.584 74.3586 74.296C74.7586 74.008 75.0546 73.616 75.2466 73.12C75.4546 72.624 75.5586 72.064 75.5586 71.44C75.5586 70.736 75.4546 70.08 75.2466 69.472C75.0386 68.864 74.7266 68.376 74.3106 68.008C73.9106 67.64 73.3986 67.456 72.7746 67.456C71.9106 67.456 71.2386 67.784 70.7586 68.44C70.2946 69.08 70.0626 69.88 70.0626 70.84C70.0626 71.608 70.1746 72.288 70.3986 72.88C70.6226 73.456 70.9426 73.912 71.3586 74.248C71.7906 74.568 72.3026 74.728 72.8946 74.728ZM86.4031 79.384C85.2991 79.384 84.2991 79.128 83.4031 78.616C82.5231 78.088 81.8271 77.352 81.3151 76.408C80.8031 75.448 80.5471 74.32 80.5471 73.024C80.5471 71.904 80.7951 70.856 81.2911 69.88C81.8031 68.904 82.5151 68.12 83.4271 67.528C84.3391 66.92 85.3951 66.616 86.5951 66.616C87.2671 66.616 87.8911 66.728 88.4671 66.952C89.0591 67.16 89.5791 67.488 90.0271 67.936C90.4751 68.368 90.8271 68.92 91.0831 69.592C91.3391 70.248 91.4671 71.024 91.4671 71.92L83.0191 72.064C83.0191 73.28 83.1471 74.352 83.4031 75.28C83.6751 76.192 84.1071 76.904 84.6991 77.416C85.2911 77.912 86.0511 78.16 86.9791 78.16C87.4751 78.16 87.9791 78.072 88.4911 77.896C89.0191 77.72 89.5071 77.48 89.9551 77.176C90.4031 76.872 90.7631 76.536 91.0351 76.168L91.6111 76.648C91.1791 77.32 90.6591 77.856 90.0511 78.256C89.4431 78.656 88.8191 78.944 88.1791 79.12C87.5391 79.296 86.9471 79.384 86.4031 79.384ZM83.0911 71.056H89.2111C89.2111 70.48 89.1231 69.928 88.9471 69.4C88.7871 68.856 88.5151 68.416 88.1311 68.08C87.7471 67.728 87.2431 67.552 86.6191 67.552C85.6911 67.552 84.9151 67.832 84.2911 68.392C83.6831 68.936 83.2831 69.824 83.0911 71.056Z" fill="#57EBA1"/>
<path d="M1 6.5V1H30V4.5H29.5L27.5 5L26 5.5L24 6.5L22.5 8.5L21.5 11.5L21 13V15.7133V81.5V84.5L20.5 86L31 85.5V86V90.5H16H1V86H2L4 85.5L6 85L7.5 84L8.5 82.5L9.5 80.5L10 73.5V11.5V10V9L10.1355 6.01918L1 6.5Z" fill="#05A660"/>
<path d="M10.5 6L10.1355 6.01918M10.1355 6.01918L1 6.5V1H30V4.5H29.5L27.5 5L26 5.5L24 6.5L22.5 8.5L21.5 11.5L21 13V15.7133V81.5V84.5L20.5 86L31 85.5V86V90.5H16H1V86H2L4 85.5L6 85L7.5 84L8.5 82.5L9.5 80.5L10 73.5V11.5V10V9L10.1355 6.01918Z" stroke="#05A660"/>
</svg>
