<svg width="458" height="204" viewBox="0 0 458 204" fill="none" xmlns="http://www.w3.org/2000/svg">
<path d="M85.9424 155V152.888C86.9984 152.824 87.7504 152.6 88.1984 152.216C88.6784 151.832 88.9824 151.256 89.1104 150.488C89.2384 149.72 89.3024 148.744 89.3024 147.56V127.592C89.3024 126.888 89.3184 126.216 89.3504 125.576C89.3824 124.904 89.4144 124.328 89.4464 123.848C88.9024 123.88 88.3104 123.912 87.6704 123.944C87.0304 123.976 86.4544 124.008 85.9424 124.04V121.4H97.7504V123.512C96.7264 123.544 95.9744 123.768 95.4944 124.184C95.0144 124.568 94.7104 125.144 94.5824 125.912C94.4544 126.648 94.3904 127.624 94.3904 128.84V148.712C94.3904 149.576 94.3744 150.344 94.3424 151.016C94.3424 151.656 94.3104 152.184 94.2464 152.6L102.358 152.504C104.342 152.472 105.862 151.832 106.918 150.584C107.974 149.304 108.502 147.288 108.502 144.536H110.662L110.374 155H85.9424ZM150.709 155.768C148.437 155.768 146.389 155.256 144.565 154.232C142.741 153.208 141.285 151.784 140.197 149.96C139.141 148.104 138.613 145.976 138.613 143.576C138.613 140.984 139.141 138.696 140.197 136.712C141.285 134.696 142.741 133.112 144.565 131.96C146.389 130.808 148.421 130.232 150.661 130.232C152.933 130.232 154.981 130.76 156.805 131.816C158.629 132.84 160.069 134.28 161.125 136.136C162.213 137.96 162.757 140.072 162.757 142.472C162.757 145 162.229 147.272 161.173 149.288C160.117 151.304 158.677 152.888 156.853 154.04C155.061 155.192 153.013 155.768 150.709 155.768ZM151.045 153.368C152.581 153.336 153.781 152.856 154.645 151.928C155.541 151 156.181 149.816 156.565 148.376C156.949 146.904 157.141 145.384 157.141 143.816C157.141 142.44 157.013 141.096 156.757 139.784C156.533 138.44 156.165 137.224 155.653 136.136C155.141 135.048 154.469 134.184 153.637 133.544C152.805 132.872 151.797 132.552 150.613 132.584C149.109 132.584 147.877 133.048 146.917 133.976C145.989 134.904 145.301 136.104 144.853 137.576C144.437 139.016 144.229 140.552 144.229 142.184C144.229 144.072 144.469 145.864 144.949 147.56C145.429 149.256 146.165 150.648 147.157 151.736C148.181 152.824 149.477 153.368 151.045 153.368ZM201.949 155.768C200.157 155.768 198.669 155.432 197.485 154.76C196.333 154.088 195.469 152.984 194.893 151.448C194.317 149.88 194.029 147.816 194.029 145.256V137.72C194.029 137.176 194.029 136.616 194.029 136.04C194.061 135.432 194.125 134.84 194.221 134.264C193.677 134.296 193.101 134.328 192.493 134.36C191.885 134.36 191.341 134.376 190.861 134.408V131.864H192.013C193.613 131.864 194.813 131.72 195.613 131.432C196.413 131.144 196.973 130.84 197.293 130.52H199.117V145.16C199.117 147.688 199.469 149.576 200.173 150.824C200.877 152.072 202.061 152.68 203.725 152.648C204.813 152.648 205.853 152.328 206.845 151.688C207.869 151.048 208.701 150.296 209.341 149.432V138.056C209.341 137.352 209.357 136.696 209.389 136.088C209.421 135.448 209.485 134.84 209.581 134.264C209.005 134.296 208.413 134.328 207.805 134.36C207.197 134.36 206.637 134.376 206.125 134.408V131.864H207.517C208.925 131.864 210.029 131.72 210.829 131.432C211.629 131.144 212.205 130.84 212.557 130.52H214.381L214.333 148.184C214.333 148.696 214.317 149.4 214.285 150.296C214.253 151.16 214.205 151.928 214.141 152.6C214.685 152.568 215.245 152.536 215.821 152.504C216.429 152.472 216.989 152.456 217.501 152.456V155H209.869C209.805 154.488 209.741 154.008 209.677 153.56C209.645 153.112 209.597 152.68 209.533 152.264C208.541 153.192 207.389 154.008 206.077 154.712C204.765 155.416 203.389 155.768 201.949 155.768ZM246.056 155V152.984C247.016 152.984 247.688 152.76 248.072 152.312C248.456 151.864 248.68 151.24 248.744 150.44C248.84 149.64 248.888 148.712 248.888 147.656L248.936 137.672C248.936 137.16 248.936 136.616 248.936 136.04C248.968 135.432 249.032 134.84 249.128 134.264C248.552 134.296 247.96 134.328 247.352 134.36C246.776 134.36 246.232 134.376 245.72 134.408V131.864C247.16 131.864 248.28 131.8 249.08 131.672C249.912 131.512 250.536 131.336 250.952 131.144C251.4 130.952 251.736 130.744 251.96 130.52H253.688C253.72 130.808 253.736 131.08 253.736 131.336C253.768 131.592 253.784 131.864 253.784 132.152C253.816 132.44 253.848 132.808 253.88 133.256C254.584 132.68 255.352 132.168 256.184 131.72C257.016 131.272 257.88 130.92 258.776 130.664C259.704 130.376 260.584 130.232 261.416 130.232C264.264 130.232 266.312 131.096 267.56 132.824C268.84 134.552 269.48 137.256 269.48 140.936V149.048C269.48 149.624 269.464 150.216 269.432 150.824C269.4 151.4 269.352 151.992 269.288 152.6C269.8 152.568 270.312 152.552 270.824 152.552C271.368 152.52 271.864 152.488 272.312 152.456V155H261.608V152.984C262.568 152.984 263.24 152.76 263.624 152.312C264.008 151.864 264.232 151.24 264.296 150.44C264.392 149.64 264.44 148.712 264.44 147.656V140.936C264.408 138.408 263.992 136.504 263.192 135.224C262.424 133.944 261.176 133.32 259.448 133.352C258.424 133.352 257.416 133.608 256.424 134.12C255.432 134.632 254.6 135.256 253.928 135.992C253.928 136.312 253.928 136.664 253.928 137.048C253.928 137.4 253.928 137.768 253.928 138.152V149.048C253.928 149.624 253.912 150.216 253.88 150.824C253.848 151.4 253.8 151.992 253.736 152.6C254.248 152.568 254.76 152.552 255.272 152.552C255.816 152.52 256.312 152.488 256.76 152.456V155H246.056ZM312.036 168.008C309.22 168.008 306.948 167.688 305.22 167.048C303.524 166.44 302.292 165.64 301.524 164.648C300.788 163.688 300.42 162.664 300.42 161.576C300.42 160.712 300.612 159.912 300.996 159.176C301.412 158.44 301.956 157.784 302.628 157.208C303.3 156.664 304.052 156.232 304.884 155.912C303.764 155.56 302.916 155.064 302.34 154.424C301.764 153.752 301.476 152.936 301.476 151.976C301.476 150.952 301.876 149.944 302.676 148.952C303.508 147.96 304.692 147.288 306.228 146.936C304.788 146.296 303.636 145.368 302.772 144.152C301.908 142.936 301.46 141.496 301.428 139.832C301.396 137.912 301.876 136.232 302.868 134.792C303.892 133.352 305.188 132.232 306.756 131.432C308.356 130.632 310.02 130.232 311.748 130.232C312.74 130.232 313.764 130.376 314.82 130.664C315.876 130.92 316.836 131.336 317.7 131.912C318.052 130.984 318.516 130.136 319.092 129.368C319.668 128.6 320.34 127.992 321.108 127.544C321.908 127.096 322.74 126.872 323.604 126.872C324.532 126.872 325.236 127.112 325.716 127.592C326.196 128.072 326.436 128.712 326.436 129.512C326.436 129.768 326.356 130.088 326.196 130.472C326.068 130.824 325.828 131.128 325.476 131.384C325.124 131.64 324.644 131.768 324.036 131.768C323.524 131.768 323.06 131.608 322.644 131.288C322.26 130.936 322.02 130.52 321.924 130.04C321.252 130.168 320.692 130.568 320.244 131.24C319.828 131.88 319.556 132.536 319.428 133.208C320.26 133.944 320.9 134.824 321.348 135.848C321.828 136.84 322.068 137.912 322.068 139.064C322.068 140.888 321.572 142.504 320.58 143.912C319.62 145.32 318.356 146.424 316.788 147.224C315.22 148.024 313.524 148.424 311.7 148.424C311.156 148.424 310.644 148.392 310.164 148.328C309.684 148.232 309.156 148.184 308.58 148.184C307.556 148.184 306.708 148.424 306.036 148.904C305.396 149.384 305.156 149.96 305.316 150.632C305.476 151.336 306.148 151.8 307.332 152.024C308.516 152.248 310.228 152.408 312.468 152.504C314.932 152.6 317.044 152.904 318.804 153.416C320.596 153.896 321.972 154.648 322.932 155.672C323.924 156.696 324.42 158.088 324.42 159.848C324.42 161.16 324.052 162.328 323.316 163.352C322.612 164.376 321.652 165.224 320.436 165.896C319.252 166.6 317.924 167.128 316.452 167.48C314.98 167.832 313.508 168.008 312.036 168.008ZM312.468 165.656C315.06 165.656 317.06 165.176 318.468 164.216C319.908 163.256 320.628 162.168 320.628 160.952C320.628 159.928 320.276 159.128 319.572 158.552C318.868 158.008 317.876 157.608 316.596 157.352C315.348 157.128 313.876 157 312.18 156.968C311.348 156.904 310.5 156.856 309.636 156.824C308.772 156.792 307.972 156.712 307.236 156.584C306.5 157.096 305.924 157.72 305.508 158.456C305.124 159.192 304.916 159.96 304.884 160.76C304.884 162.232 305.572 163.416 306.948 164.312C308.324 165.208 310.164 165.656 312.468 165.656ZM311.844 146.168C312.932 146.168 313.828 145.896 314.532 145.352C315.268 144.776 315.812 144.024 316.164 143.096C316.548 142.136 316.74 141.096 316.74 139.976C316.74 138.664 316.548 137.432 316.164 136.28C315.78 135.128 315.22 134.2 314.484 133.496C313.748 132.792 312.804 132.44 311.652 132.44C310.084 132.44 308.868 133.064 308.004 134.312C307.14 135.56 306.708 137.064 306.708 138.824C306.708 140.232 306.9 141.496 307.284 142.616C307.7 143.704 308.292 144.568 309.06 145.208C309.828 145.848 310.756 146.168 311.844 146.168ZM364.217 155.768C361.977 155.768 359.961 155.256 358.169 154.232C356.409 153.176 355.017 151.704 353.993 149.816C352.969 147.896 352.457 145.64 352.457 143.048C352.457 140.808 352.953 138.712 353.945 136.76C354.969 134.808 356.393 133.24 358.217 132.056C360.041 130.84 362.153 130.232 364.553 130.232C365.897 130.232 367.161 130.44 368.345 130.856C369.561 131.272 370.633 131.928 371.561 132.824C372.521 133.688 373.273 134.824 373.817 136.232C374.361 137.608 374.633 139.288 374.633 141.272L358.121 141.56C358.121 143.736 358.361 145.672 358.841 147.368C359.353 149.064 360.169 150.376 361.289 151.304C362.409 152.232 363.865 152.696 365.657 152.696C366.521 152.696 367.433 152.552 368.393 152.264C369.385 151.944 370.313 151.496 371.177 150.92C372.073 150.344 372.825 149.656 373.433 148.856L374.921 150.152C373.961 151.592 372.857 152.728 371.609 153.56C370.361 154.36 369.081 154.92 367.769 155.24C366.489 155.592 365.305 155.768 364.217 155.768ZM358.313 139.064H369.401C369.401 137.848 369.225 136.76 368.873 135.8C368.553 134.808 368.041 134.024 367.337 133.448C366.633 132.872 365.737 132.584 364.649 132.584C362.953 132.584 361.561 133.128 360.473 134.216C359.385 135.272 358.665 136.888 358.313 139.064Z" fill="#57EBA1"/>
<path d="M440.569 22.299C439.027 22.17 437.496 22.168 435.982 22.265V22.261L398.823 22.29C390.617 22.29 383.91 24.059 378.586 27.62C378.32 23.251 377.768 17.637 376.623 12.485C375.014 5.251 368.435 0 360.98 0H228.167H95.353C87.898 0 81.321 5.251 79.711 12.485C78.566 17.637 78.013 23.251 77.747 27.62C72.423 24.058 65.716 22.29 57.512 22.29L20.35 22.261V22.264C18.836 22.167 17.305 22.17 15.763 22.299C6.924 23.036 0 30.562 0 39.432V147.054C0 162.464 12.537 175 27.946 175H36V194.869C36 198.525 38.183 201.792 41.561 203.191C42.682 203.655 43.855 203.881 45.018 203.881C47.357 203.881 49.651 202.965 51.378 201.238L77.616 174.999H378.717L404.956 201.238C406.684 202.965 408.977 203.881 411.316 203.881C412.477 203.881 413.651 203.655 414.772 203.191C418.15 201.792 420.333 198.525 420.333 194.868V174.999H428.387C443.796 174.999 456.333 162.462 456.333 147.053V39.432C456.333 30.562 449.408 23.036 440.569 22.299ZM398.826 29.29L418.159 29.275C414.532 32.232 411.537 36.012 409.504 40.434L397.772 65.957C389.711 83.492 390.109 103.282 397.944 120.086C385.431 112.247 372.048 105.974 358.079 101.38C356.407 90.302 357.985 79.109 362.683 68.883L374.414 43.362C378.882 33.629 386.41 29.29 398.826 29.29ZM95.353 7H228.167H360.98C365.182 7 368.886 9.946 369.789 14.005C371.499 21.695 371.778 30.863 371.822 34.053C370.397 35.95 369.139 38.073 368.053 40.439L356.322 65.96C351.515 76.422 349.626 87.784 350.75 99.128C340.351 96.185 329.67 94.145 318.814 93.08C258.665 87.487 197.669 87.488 137.501 93.081C126.653 94.145 115.978 96.184 105.584 99.126C106.707 87.783 104.818 76.421 100.01 65.958L88.28 40.44C87.194 38.074 85.935 35.95 84.51 34.053C84.553 30.867 84.831 21.712 86.544 14.005C87.447 9.945 91.151 7 95.353 7ZM57.51 29.29C69.923 29.29 77.451 33.629 81.92 43.362L93.649 68.882C98.349 79.109 99.927 90.302 98.255 101.378C84.287 105.972 70.903 112.246 58.389 120.086C66.224 103.282 66.622 83.492 58.561 65.957L46.829 40.434C44.797 36.012 41.801 32.232 38.174 29.275L57.51 29.29ZM46.429 196.289C45.574 197.145 44.612 196.878 44.24 196.725C43.868 196.57 43.001 196.08 43.001 194.87V175.001H67.718L46.429 196.289ZM413.333 194.869C413.333 196.08 412.466 196.57 412.094 196.724C411.722 196.878 410.763 197.145 409.906 196.288L388.617 174.999H413.334V194.869H413.333ZM449.333 147.053C449.333 158.621 439.955 167.999 428.387 167.999H27.946C16.378 168 7 158.622 7 147.053V39.432C7 34.174 11.105 29.712 16.346 29.275C26.501 28.431 36.207 34.087 40.47 43.358L52.202 68.881C62.416 91.101 57.411 117.393 39.746 134.306L44.588 139.362C48.36 135.744 52.414 132.42 56.739 129.486C80.969 113.05 108.939 102.916 138.167 100.05C197.887 94.498 258.447 94.497 318.149 100.049C347.392 102.916 375.364 113.05 399.594 129.486C403.901 132.408 407.939 135.716 411.697 139.316L411.745 139.362L416.587 134.306C398.922 117.393 393.916 91.101 404.13 68.881L415.862 43.358C420.124 34.087 429.835 28.438 439.986 29.275C445.226 29.712 449.332 34.173 449.332 39.432V147.053H449.333Z" fill="#57EBA1"/>
</svg>
