<svg width="457" height="204" viewBox="0 0 457 204" fill="none" xmlns="http://www.w3.org/2000/svg">
<path d="M63.4031 150V148.416C63.7711 148.4 64.0751 148.352 64.3151 148.272C64.5711 148.192 64.7631 148.008 64.8911 147.72C65.0351 147.432 65.1071 146.968 65.1071 146.328V137.136C65.1071 136.704 65.1151 136.288 65.1311 135.888C65.1631 135.488 65.1871 135.184 65.2031 134.976C64.9471 134.992 64.6271 135.008 64.2431 135.024C63.8591 135.024 63.5791 135.032 63.4031 135.048V133.2H70.2911V134.784C69.9391 134.8 69.6351 134.848 69.3791 134.928C69.1231 135.008 68.9231 135.192 68.7791 135.48C68.6511 135.752 68.5871 136.216 68.5871 136.872V146.064C68.5871 146.496 68.5791 146.904 68.5631 147.288C68.5471 147.672 68.5231 147.968 68.4911 148.176H71.7071C72.6511 148.16 73.3871 147.832 73.9151 147.192C74.4591 146.536 74.7311 145.552 74.7311 144.24H76.3391L76.1951 150H63.4031ZM128.459 150.768C126.187 150.768 124.139 150.256 122.315 149.232C120.491 148.208 119.035 146.784 117.947 144.96C116.891 143.104 116.363 140.976 116.363 138.576C116.363 135.984 116.891 133.696 117.947 131.712C119.035 129.696 120.491 128.112 122.315 126.96C124.139 125.808 126.171 125.232 128.411 125.232C130.683 125.232 132.731 125.76 134.555 126.816C136.379 127.84 137.819 129.28 138.875 131.136C139.963 132.96 140.507 135.072 140.507 137.472C140.507 140 139.979 142.272 138.923 144.288C137.867 146.304 136.427 147.888 134.603 149.04C132.811 150.192 130.763 150.768 128.459 150.768ZM128.795 148.368C130.331 148.336 131.531 147.856 132.395 146.928C133.291 146 133.931 144.816 134.315 143.376C134.699 141.904 134.891 140.384 134.891 138.816C134.891 137.44 134.763 136.096 134.507 134.784C134.283 133.44 133.915 132.224 133.403 131.136C132.891 130.048 132.219 129.184 131.387 128.544C130.555 127.872 129.547 127.552 128.363 127.584C126.859 127.584 125.627 128.048 124.667 128.976C123.739 129.904 123.051 131.104 122.603 132.576C122.187 134.016 121.979 135.552 121.979 137.184C121.979 139.072 122.219 140.864 122.699 142.56C123.179 144.256 123.915 145.648 124.907 146.736C125.931 147.824 127.227 148.368 128.795 148.368ZM192.308 150.768C190.516 150.768 189.028 150.432 187.844 149.76C186.692 149.088 185.828 147.984 185.252 146.448C184.676 144.88 184.388 142.816 184.388 140.256V132.72C184.388 132.176 184.388 131.616 184.388 131.04C184.42 130.432 184.484 129.84 184.58 129.264C184.036 129.296 183.46 129.328 182.852 129.36C182.244 129.36 181.7 129.376 181.22 129.408V126.864H182.372C183.972 126.864 185.172 126.72 185.972 126.432C186.772 126.144 187.332 125.84 187.652 125.52H189.476V140.16C189.476 142.688 189.828 144.576 190.532 145.824C191.236 147.072 192.42 147.68 194.084 147.648C195.172 147.648 196.212 147.328 197.204 146.688C198.228 146.048 199.06 145.296 199.7 144.432V133.056C199.7 132.352 199.716 131.696 199.748 131.088C199.78 130.448 199.844 129.84 199.94 129.264C199.364 129.296 198.772 129.328 198.164 129.36C197.556 129.36 196.996 129.376 196.484 129.408V126.864H197.876C199.284 126.864 200.388 126.72 201.188 126.432C201.988 126.144 202.564 125.84 202.916 125.52H204.74L204.692 143.184C204.692 143.696 204.676 144.4 204.644 145.296C204.612 146.16 204.564 146.928 204.5 147.6C205.044 147.568 205.604 147.536 206.18 147.504C206.788 147.472 207.348 147.456 207.86 147.456V150H200.228C200.164 149.488 200.1 149.008 200.036 148.56C200.004 148.112 199.956 147.68 199.892 147.264C198.9 148.192 197.748 149.008 196.436 149.712C195.124 150.416 193.748 150.768 192.308 150.768ZM249.025 150V147.984C249.985 147.984 250.657 147.76 251.041 147.312C251.425 146.864 251.649 146.24 251.713 145.44C251.809 144.64 251.857 143.712 251.857 142.656L251.905 132.672C251.905 132.16 251.905 131.616 251.905 131.04C251.937 130.432 252.001 129.84 252.097 129.264C251.521 129.296 250.929 129.328 250.321 129.36C249.745 129.36 249.201 129.376 248.689 129.408V126.864C250.129 126.864 251.249 126.8 252.049 126.672C252.881 126.512 253.505 126.336 253.921 126.144C254.369 125.952 254.705 125.744 254.929 125.52H256.657C256.689 125.808 256.705 126.08 256.705 126.336C256.737 126.592 256.753 126.864 256.753 127.152C256.785 127.44 256.817 127.808 256.849 128.256C257.553 127.68 258.321 127.168 259.153 126.72C259.985 126.272 260.849 125.92 261.745 125.664C262.673 125.376 263.553 125.232 264.385 125.232C267.233 125.232 269.281 126.096 270.529 127.824C271.809 129.552 272.449 132.256 272.449 135.936V144.048C272.449 144.624 272.433 145.216 272.401 145.824C272.369 146.4 272.321 146.992 272.257 147.6C272.769 147.568 273.281 147.552 273.793 147.552C274.337 147.52 274.833 147.488 275.281 147.456V150H264.577V147.984C265.537 147.984 266.209 147.76 266.593 147.312C266.977 146.864 267.201 146.24 267.265 145.44C267.361 144.64 267.409 143.712 267.409 142.656V135.936C267.377 133.408 266.961 131.504 266.161 130.224C265.393 128.944 264.145 128.32 262.417 128.352C261.393 128.352 260.385 128.608 259.393 129.12C258.401 129.632 257.569 130.256 256.897 130.992C256.897 131.312 256.897 131.664 256.897 132.048C256.897 132.4 256.897 132.768 256.897 133.152V144.048C256.897 144.624 256.881 145.216 256.849 145.824C256.817 146.4 256.769 146.992 256.705 147.6C257.217 147.568 257.729 147.552 258.241 147.552C258.785 147.52 259.281 147.488 259.729 147.456V150H249.025ZM327.614 163.008C324.798 163.008 322.526 162.688 320.798 162.048C319.102 161.44 317.87 160.64 317.102 159.648C316.366 158.688 315.998 157.664 315.998 156.576C315.998 155.712 316.19 154.912 316.574 154.176C316.99 153.44 317.534 152.784 318.206 152.208C318.878 151.664 319.63 151.232 320.462 150.912C319.342 150.56 318.494 150.064 317.918 149.424C317.342 148.752 317.054 147.936 317.054 146.976C317.054 145.952 317.454 144.944 318.254 143.952C319.086 142.96 320.27 142.288 321.806 141.936C320.366 141.296 319.214 140.368 318.35 139.152C317.486 137.936 317.038 136.496 317.006 134.832C316.974 132.912 317.454 131.232 318.446 129.792C319.47 128.352 320.766 127.232 322.334 126.432C323.934 125.632 325.598 125.232 327.326 125.232C328.318 125.232 329.342 125.376 330.398 125.664C331.454 125.92 332.414 126.336 333.278 126.912C333.63 125.984 334.094 125.136 334.67 124.368C335.246 123.6 335.918 122.992 336.686 122.544C337.486 122.096 338.318 121.872 339.182 121.872C340.11 121.872 340.814 122.112 341.294 122.592C341.774 123.072 342.014 123.712 342.014 124.512C342.014 124.768 341.934 125.088 341.774 125.472C341.646 125.824 341.406 126.128 341.054 126.384C340.702 126.64 340.222 126.768 339.614 126.768C339.102 126.768 338.638 126.608 338.222 126.288C337.838 125.936 337.598 125.52 337.502 125.04C336.83 125.168 336.27 125.568 335.822 126.24C335.406 126.88 335.134 127.536 335.006 128.208C335.838 128.944 336.478 129.824 336.926 130.848C337.406 131.84 337.646 132.912 337.646 134.064C337.646 135.888 337.15 137.504 336.158 138.912C335.198 140.32 333.934 141.424 332.366 142.224C330.798 143.024 329.102 143.424 327.278 143.424C326.734 143.424 326.222 143.392 325.742 143.328C325.262 143.232 324.734 143.184 324.158 143.184C323.134 143.184 322.286 143.424 321.614 143.904C320.974 144.384 320.734 144.96 320.894 145.632C321.054 146.336 321.726 146.8 322.91 147.024C324.094 147.248 325.806 147.408 328.046 147.504C330.51 147.6 332.622 147.904 334.382 148.416C336.174 148.896 337.55 149.648 338.51 150.672C339.502 151.696 339.998 153.088 339.998 154.848C339.998 156.16 339.63 157.328 338.894 158.352C338.19 159.376 337.23 160.224 336.014 160.896C334.83 161.6 333.502 162.128 332.03 162.48C330.558 162.832 329.086 163.008 327.614 163.008ZM328.046 160.656C330.638 160.656 332.638 160.176 334.046 159.216C335.486 158.256 336.206 157.168 336.206 155.952C336.206 154.928 335.854 154.128 335.15 153.552C334.446 153.008 333.454 152.608 332.174 152.352C330.926 152.128 329.454 152 327.758 151.968C326.926 151.904 326.078 151.856 325.214 151.824C324.35 151.792 323.55 151.712 322.814 151.584C322.078 152.096 321.502 152.72 321.086 153.456C320.702 154.192 320.494 154.96 320.462 155.76C320.462 157.232 321.15 158.416 322.526 159.312C323.902 160.208 325.742 160.656 328.046 160.656ZM327.422 141.168C328.51 141.168 329.406 140.896 330.11 140.352C330.846 139.776 331.39 139.024 331.742 138.096C332.126 137.136 332.318 136.096 332.318 134.976C332.318 133.664 332.126 132.432 331.742 131.28C331.358 130.128 330.798 129.2 330.062 128.496C329.326 127.792 328.382 127.44 327.23 127.44C325.662 127.44 324.446 128.064 323.582 129.312C322.718 130.56 322.286 132.064 322.286 133.824C322.286 135.232 322.478 136.496 322.862 137.616C323.278 138.704 323.87 139.568 324.638 140.208C325.406 140.848 326.334 141.168 327.422 141.168ZM388.18 144.216C388.18 143.544 388.076 143.064 387.868 142.776C387.66 142.472 387.372 142.28 387.004 142.2C386.652 142.12 386.26 142.088 385.828 142.104L385.204 142.128V146.064C385.204 146.496 385.196 146.904 385.18 147.288C385.164 147.672 385.14 147.968 385.108 148.176H388.324C388.804 148.176 389.268 148.072 389.716 147.864C390.164 147.64 390.532 147.28 390.82 146.784C391.108 146.272 391.252 145.584 391.252 144.72H392.812L392.692 150H380.02V148.416C380.388 148.4 380.692 148.352 380.932 148.272C381.188 148.192 381.38 148.008 381.508 147.72C381.652 147.432 381.724 146.968 381.724 146.328V137.136C381.724 136.704 381.732 136.288 381.748 135.888C381.78 135.488 381.804 135.184 381.82 134.976C381.564 134.992 381.244 135.008 380.86 135.024C380.476 135.024 380.196 135.032 380.02 135.048V133.2H392.02L392.164 137.856H390.58C390.58 136.976 390.428 136.312 390.124 135.864C389.82 135.416 389.444 135.12 388.996 134.976C388.548 134.816 388.108 134.744 387.676 134.76L386.812 134.784C386.476 134.784 386.188 134.832 385.948 134.928C385.708 135.008 385.524 135.2 385.396 135.504C385.268 135.792 385.204 136.248 385.204 136.872V140.472H388.012L387.916 138.384H389.764V144.216H388.18Z" fill="#57EBA1"/>
<path d="M440.569 22.299C439.027 22.17 437.496 22.168 435.982 22.265V22.261L398.823 22.29C390.617 22.29 383.91 24.059 378.586 27.62C378.32 23.251 377.768 17.637 376.623 12.485C375.014 5.251 368.435 0 360.98 0H228.167H95.353C87.898 0 81.321 5.251 79.711 12.485C78.566 17.637 78.013 23.251 77.747 27.62C72.423 24.058 65.716 22.29 57.512 22.29L20.35 22.261V22.264C18.836 22.167 17.305 22.17 15.763 22.299C6.924 23.036 0 30.562 0 39.432V147.054C0 162.464 12.537 175 27.946 175H36V194.869C36 198.525 38.183 201.792 41.561 203.191C42.682 203.655 43.855 203.881 45.018 203.881C47.357 203.881 49.651 202.965 51.378 201.238L77.616 174.999H378.717L404.956 201.238C406.684 202.965 408.977 203.881 411.316 203.881C412.477 203.881 413.651 203.655 414.772 203.191C418.15 201.792 420.333 198.525 420.333 194.868V174.999H428.387C443.796 174.999 456.333 162.462 456.333 147.053V39.432C456.333 30.562 449.408 23.036 440.569 22.299ZM398.826 29.29L418.159 29.275C414.532 32.232 411.537 36.012 409.504 40.434L397.772 65.957C389.711 83.492 390.109 103.282 397.944 120.086C385.431 112.247 372.048 105.974 358.079 101.38C356.407 90.302 357.985 79.109 362.683 68.883L374.414 43.362C378.882 33.629 386.41 29.29 398.826 29.29ZM95.353 7H228.167H360.98C365.182 7 368.886 9.946 369.789 14.005C371.499 21.695 371.778 30.863 371.822 34.053C370.397 35.95 369.139 38.073 368.053 40.439L356.322 65.96C351.515 76.422 349.626 87.784 350.75 99.128C340.351 96.185 329.67 94.145 318.814 93.08C258.665 87.487 197.669 87.488 137.501 93.081C126.653 94.145 115.978 96.184 105.584 99.126C106.707 87.783 104.818 76.421 100.01 65.958L88.28 40.44C87.194 38.074 85.935 35.95 84.51 34.053C84.553 30.867 84.831 21.712 86.544 14.005C87.447 9.945 91.151 7 95.353 7ZM57.51 29.29C69.923 29.29 77.451 33.629 81.92 43.362L93.649 68.882C98.349 79.109 99.927 90.302 98.255 101.378C84.287 105.972 70.903 112.246 58.389 120.086C66.224 103.282 66.622 83.492 58.561 65.957L46.829 40.434C44.797 36.012 41.801 32.232 38.174 29.275L57.51 29.29ZM46.429 196.289C45.574 197.145 44.612 196.878 44.24 196.725C43.868 196.57 43.001 196.08 43.001 194.87V175.001H67.718L46.429 196.289ZM413.333 194.869C413.333 196.08 412.466 196.57 412.094 196.724C411.722 196.878 410.763 197.145 409.906 196.288L388.617 174.999H413.334V194.869H413.333ZM449.333 147.053C449.333 158.621 439.955 167.999 428.387 167.999H27.946C16.378 168 7 158.622 7 147.053V39.432C7 34.174 11.105 29.712 16.346 29.275C26.501 28.431 36.207 34.087 40.47 43.358L52.202 68.881C62.416 91.101 57.411 117.393 39.746 134.306L44.588 139.362C48.36 135.744 52.414 132.42 56.739 129.486C80.969 113.05 108.939 102.916 138.167 100.05C197.887 94.498 258.447 94.497 318.149 100.049C347.392 102.916 375.364 113.05 399.594 129.486C403.901 132.408 407.939 135.716 411.697 139.316L411.745 139.362L416.587 134.306C398.922 117.393 393.916 91.101 404.13 68.881L415.862 43.358C420.124 34.087 429.835 28.438 439.986 29.275C445.226 29.712 449.332 34.173 449.332 39.432V147.053H449.333Z" fill="#57EBA1"/>
</svg>
